<svg xmlns="http://www.w3.org/2000/svg" viewBox="0 0 50 50"><path d="M29.69 9.374H10.94a1.562 1.562 0 100 3.124h18.75a1.562 1.562 0 000-3.124zm-6.25 6.25h-12.5a1.563 1.563 0 100 3.125h12.5a1.563 1.563 0 000-3.125zM34.37 0H6.25A6.255 6.255 0 000 6.25V37.5a1.562 1.562 0 00.9 1.416 1.593 1.593 0 00.66.147 1.553 1.553 0 001-.362l8.94-7.45h22.87A6.254 6.254 0 0040.62 25V6.248A6.255 6.255 0 0034.37 0zm3.13 25a3.129 3.129 0 01-3.13 3.126H10.94a1.551 1.551 0 00-1 .362l-6.82 5.679V6.248a3.129 3.129 0 013.13-3.124h28.12a3.129 3.129 0 013.13 3.124V25zm6.25-12.5a1.563 1.563 0 000 3.126 3.127 3.127 0 013.12 3.125v26.432l-5.27-4.219a1.585 1.585 0 00-.98-.34H18.75a3.13 3.13 0 01-3.13-3.126v-1.562a1.56 1.56 0 10-3.12 0V37.5a6.254 6.254 0 006.25 6.251h21.32l7.39 5.909a1.563 1.563 0 00.98.341 1.582 1.582 0 00.68-.153 1.563 1.563 0 00.88-1.409v-29.69a6.255 6.255 0 00-6.25-6.249z"/></svg>