<svg xmlns="http://www.w3.org/2000/svg" width="36" height="36"><path d="M34.83 33.65H1.17a1.175 1.175 0 000 2.35h33.66a1.175 1.175 0 000-2.35zM18 0A17.63 17.63 0 00.39 17.61a1.174 1.174 0 001.18 1.17h32.86a1.174 1.174 0 001.18-1.17A17.63 17.63 0 0018 0zm-3.11 7.51a10.546 10.546 0 00-6.57 5.87 1.173 1.173 0 11-2.15-.94 12.941 12.941 0 018.03-7.18 1.177 1.177 0 01.69 2.25zm-.2 13.62a3.506 3.506 0 006.62 0h-6.62zm16.57 1.37l-1.12-.53q.15-.42.27-.84h-6.66a5.87 5.87 0 01-11.5 0H5.58a13.234 13.234 0 00.71 1.88l-1.07.62a1.168 1.168 0 00-.43 1.61 1.181 1.181 0 001.6.43l1.08-.63a12.615 12.615 0 002.2 2.41l-.71 1.02a1.174 1.174 0 001.92 1.35l.71-1.02a12.764 12.764 0 003.02 1.26l-.21 1.22a1.173 1.173 0 102.31.41l.21-1.22c.36.03.72.05 1.08.05a13.116 13.116 0 002.19-.19l.32 1.19a1.175 1.175 0 002.27-.61l-.32-1.19a13.276 13.276 0 002.89-1.52l.8.95a1.184 1.184 0 001.66.14 1.171 1.171 0 00.14-1.65l-.8-.95a12.842 12.842 0 001.99-2.59l1.13.52a1.17 1.17 0 10.99-2.12z" fill="#efb007" fill-rule="evenodd"/></svg>