<svg xmlns="http://www.w3.org/2000/svg" width="40" height="32"><path d="M6.52 24a1.33 1.33 0 000 2.66 1.33 1.33 0 000-2.66zm16.52 0a1.33 1.33 0 000 2.66 1.33 1.33 0 000-2.66zM6.52 18.66h16.52a6.384 6.384 0 013.91 1.35V12a1.323 1.323 0 01.97-1.29 1.29 1.29 0 011.47.63L39.82 30a1.336 1.336 0 01-1.13 2h-5.22a6.4 6.4 0 00-10.43 0H6.52a6.672 6.672 0 010-13.34zm16.52 10.67a4 4 0 10-3.92-4 3.955 3.955 0 003.92 4zm-16.52 0a4 4 0 10-3.92-4 3.961 3.961 0 003.92 4zM6.52 0h7.82a1.311 1.311 0 011.27 1.01l2.36 9.65h1.15V9.33a1.305 1.305 0 112.61 0v2.06A5.339 5.339 0 0124.34 16v.1a9.364 9.364 0 00-1.3-.1H6.52a8.9 8.9 0 00-3.92.91V4a3.963 3.963 0 013.92-4zm1.3 9.33a1.313 1.313 0 001.31 1.33h6.15l-1.96-8H9.13A1.321 1.321 0 007.82 4v5.33z" fill="#222" fill-rule="evenodd"/></svg>