<svg xmlns="http://www.w3.org/2000/svg" xmlns:xlink="http://www.w3.org/1999/xlink" viewBox="0 0 412.5 460.8"><defs><path id="a" d="M0 0h412.5v460.8H0z"/></defs><clipPath id="b"><use xlink:href="#a" overflow="visible"/></clipPath><path d="M206.3 239.3c65.8 0 119.6-53.8 119.6-119.6C325.9 53.8 272.1 0 206.3 0 140.4 0 86.6 53.8 86.6 119.6c0 65.9 53.8 119.7 119.7 119.7m205.3 95.6c-3.1-7.8-7.3-15.2-12-21.9-24-35.5-61.1-59-102.9-64.8-5.2-.5-11 .5-15.2 3.7-21.9 16.2-48.1 24.6-75.2 24.6-27.2 0-53.3-8.4-75.2-24.6-4.2-3.1-9.9-4.7-15.2-3.7C74.1 253.9 36.5 277.5 13 313c-4.7 6.8-8.9 14.6-12 21.9-1.6 3.1-1 6.8.5 9.9 4.2 7.3 9.4 14.6 14.1 20.9 7.3 9.9 15.2 18.8 24 27.2 7.3 7.3 15.7 14.1 24 20.9 41.3 30.8 90.9 47 142.1 47s100.8-16.2 142.1-47c8.4-6.3 16.7-13.6 24-20.9 8.4-8.4 16.7-17.2 24-27.2 5.2-6.8 9.9-13.6 14.1-20.9 2.7-3.1 3.3-6.8 1.7-9.9" clip-path="url(#b)"/></svg>